<?xml version="1.0" encoding="utf-8"?>
<!-- Generator: Adobe Illustrator 21.0.0, SVG Export Plug-In . SVG Version: 6.00 Build 0)  -->
<svg version="1.1" id="Layer_1" xmlns="http://www.w3.org/2000/svg" xmlns:xlink="http://www.w3.org/1999/xlink" x="0px" y="0px"
	 viewBox="0 0 278.8 25.4" style="enable-background:new 0 0 278.8 25.4;" xml:space="preserve">
<style type="text/css">
	.st0{fill:none;stroke:#292827;stroke-width:0.25;stroke-miterlimit:10;}
	.st1{fill:#292827;}
</style>
<path class="st0" d="M0.1,1h19.5c2.7,0,4.3,0.2,5.5,0.9c1.7,0.9,3.2,3.1,3.2,5.7c0,2.2-0.9,4.6-3.6,5.3v0.1c1.4,0.4,2.5,1.6,2.7,3.6
	l0.4,5.1c0.1,1,0.6,2,1.1,2.8H18.8c-0.3-0.7-0.3-1.7-0.5-4.4c-0.1-1.7-0.7-2.8-2.4-2.8H9.4v7.2H0.1V1z M9.4,11.3h6.6
	c1.8,0,2.6-0.7,2.6-2.2c0-1.8-1.1-2.2-2.7-2.2H9.4V11.3z"/>
<path class="st0" d="M46.5,0.2c5.6,0,16,0.4,16,12.5s-10.4,12.5-16,12.5s-16-0.4-16-12.5S40.8,0.2,46.5,0.2z M46.5,19.3
	c3.8,0,6.2-1.9,6.2-6.6s-2.4-6.6-6.2-6.6c-3.8,0-6.2,1.9-6.2,6.6S42.7,19.3,46.5,19.3z"/>
<path class="st0" d="M65.7,1h13l3.8,13.6h0.1L86.5,1h13v23.4h-8.4V7.7h-0.1l-4.9,16.7h-7L74.2,7.7h-0.1v16.7h-8.4V1z"/>
<path class="st0" d="M110.7,1H122l10,23.4h-9.8l-1-2.7h-9.6l-1,2.7h-9.8L110.7,1z M116.4,8.1L116.4,8.1l-2.8,7.9h5.6L116.4,8.1z"/>
<path class="st0" d="M133.3,1h9.3v23.4h-9.3V1z"/>
<path class="st0" d="M147.2,1h10.6l9.4,13h0.1V1h8.9v23.4h-10.1l-9.8-13.1H156v13.1h-8.9V1z"/>
<path class="st1" d="M180.7,1h9.3v23.4h-9.3V1z"/>
<path class="st1" d="M190.9,1h10.2l5.2,15h0.1l5.2-15h10.2l-10.5,23.4h-9.7L190.9,1z"/>
<path class="st1" d="M227.4,1h11.4l10,23.4h-9.8l-1-2.7h-9.6l-1,2.7h-9.8L227.4,1z M233.1,8.1L233.1,8.1l-2.8,7.9h5.6L233.1,8.1z"/>
<path class="st1" d="M249.9,1h10.6l9.4,13h0.1V1h8.9v23.4h-10.1l-9.8-13.1h-0.1v13.1h-8.9V1z"/>
</svg>
